<svg width="86" height="56" viewBox="0 0 86 56" fill="none" xmlns="http://www.w3.org/2000/svg">
<path d="M79.4265 30.2432L80.9541 30.312C81.255 30.335 83.7548 30.3809 84.8658 31.9185C85.5834 32.8594 85.6296 33.8692 85.6296 34.9938L83.6854 34.9708C83.6622 34.3053 83.6391 33.7315 83.2456 33.1348C83.0604 32.8135 82.7364 32.4464 81.9494 32.2628C81.1624 32.0792 79.357 31.9874 77.2739 31.9874C76.3249 31.9874 75.3527 32.0103 74.3806 32.0103C73.7788 32.0103 73.177 32.0103 72.5521 32.0562C71.1864 32.171 70.492 32.4234 70.0986 32.8365C69.5199 33.4791 69.4968 34.5807 69.4968 34.8561C69.4968 36.0265 69.9134 36.5773 70.2374 36.8298C70.6541 37.1511 71.3485 37.3347 72.5058 37.4035C73.5242 37.4724 74.5426 37.4724 75.5611 37.4724C77.2507 37.5183 78.9404 37.5183 80.6301 37.6101C83.0604 37.7478 84.1483 38.0461 85.0278 38.9871C85.5371 39.5149 86 40.2952 86 41.9246C86 44.3803 85.375 45.2983 84.3798 45.9179C83.1067 46.7212 81.5791 46.8359 80.1903 46.8589H76.973C74.3112 46.8589 72.4826 46.813 71.3716 46.6753C71.0938 46.6523 69.4042 46.4458 68.4552 45.5048C68.1774 45.2524 68.0154 44.9999 67.8534 44.6786C67.3905 43.7147 67.3905 42.6131 67.3673 41.6033L69.4042 41.6263C69.4042 41.6492 69.2422 43.5082 70.0523 44.2885C70.3532 44.5868 70.8161 44.7016 70.9318 44.7245C71.904 44.977 74.5426 45.0917 77.3665 45.0917C78.5238 45.0917 79.6579 45.0688 80.7921 44.9999C80.7921 44.9999 82.3892 44.977 83.153 44.4491C84.0557 43.8065 84.102 42.3607 84.102 42.1771C84.102 42.0164 84.0789 41.3279 83.8474 40.7312C83.5465 39.928 82.9678 39.5838 81.3476 39.469C80.4912 39.4231 79.6116 39.4002 78.7321 39.3772C76.8804 39.3313 75.0287 39.3084 73.177 39.2395C70.7004 39.1248 69.6125 38.9641 68.6172 38.1379C67.6682 37.3117 67.483 36.3249 67.483 35.1085C67.483 33.3414 67.6682 31.8267 69.3116 30.9317C70.2143 30.4268 71.0707 30.4497 72.0428 30.3809C72.6215 30.335 73.177 30.2891 73.7325 30.2432C74.6352 30.1973 75.5148 30.1973 76.3943 30.1973C77.4128 30.1973 78.4312 30.2202 79.4265 30.2432Z" fill="white"/>
<path d="M47.7164 30.4722L55.3083 38.1145L62.854 30.4722H65.6315C64.1965 31.941 62.7614 33.4098 61.2801 34.8556C59.8913 36.2096 58.4794 37.5178 57.16 38.9407C56.8591 39.262 56.5814 39.5833 56.2805 39.9046V46.6748H54.1973V39.8587L44.8231 30.4722H47.7164Z" fill="white"/>
<path d="M31.8253 30.4722H34.5566L44.1622 46.6748H41.8476L39.6487 42.9798H26.5017L24.4185 46.6748H22.0576L31.8253 30.4722ZM33.1909 31.7574L27.4044 41.4422H38.746L33.1909 31.7574Z" fill="white"/>
<path d="M0 30.4722H13.3322C13.7257 30.4722 14.1423 30.4722 14.5358 30.5181C16.5495 30.6558 18.1466 31.3902 19.0725 33.2491C19.628 34.3736 19.8363 35.8424 19.8363 38.5046C19.8363 38.9636 19.8363 40.4554 19.5817 41.993C19.3271 43.347 18.9799 44.0814 18.679 44.5634C18.4707 44.8388 18.1466 45.2978 17.4059 45.7568C16.156 46.5141 14.9293 46.6059 13.5637 46.6748H0V30.4722ZM2.01372 32.1016V44.9535H12.4295C14.1655 44.8617 15.207 44.7699 15.9477 44.3568C16.3875 44.1044 17.0356 43.5536 17.4059 42.4061C17.6142 41.7176 17.7994 40.3865 17.7994 38.5735C17.7994 37.9768 17.7763 37.3801 17.73 36.7834C17.5911 34.4884 17.105 33.4556 16.1097 32.7901C15.1607 32.1246 14.1886 32.1016 13.0544 32.1016H2.01372Z" fill="white"/>
<path d="M59.2728 49.9622L62.0698 52.7777L64.8498 49.9622H65.8731C65.3444 50.5033 64.8157 51.0444 64.2699 51.5771C63.7583 52.076 63.2381 52.5579 62.752 53.0821C62.6412 53.2005 62.5388 53.3189 62.428 53.4373V55.9315H61.6605V53.4203L58.2068 49.9622H59.2728Z" fill="#CC9B12"/>
<path d="M57.5368 51.8821H56.812C56.8035 51.6623 56.7949 51.4087 56.7352 51.1888C56.6244 50.7914 56.3856 50.6561 55.6693 50.597C55.1406 50.5631 54.6204 50.5378 54.0917 50.5378C53.6056 50.5378 53.1196 50.5547 52.6335 50.5716C52.3265 50.5885 51.849 50.6223 51.5761 50.8252C51.2861 51.0535 51.252 51.527 51.2264 51.8568C51.1923 52.2457 51.1668 52.6347 51.1668 53.0321C51.1668 53.3618 51.1838 53.7 51.1923 54.0298C51.2179 54.3257 51.235 54.6724 51.4055 54.9429C51.5931 55.222 51.9257 55.2981 52.5482 55.3319H55.6352C55.9507 55.315 56.3771 55.2896 56.6159 55.0275C56.8546 54.7569 56.8376 54.3088 56.829 53.9875L57.588 53.996C57.588 54.2073 57.5965 54.4187 57.5709 54.6301C57.4942 55.3742 57.1701 55.6447 56.8631 55.7885C56.4538 55.9829 56.0275 55.9914 55.6011 55.9998H52.6676C52.5653 55.9998 52.4629 55.9914 52.3606 55.9914C51.9257 55.9745 51.4396 55.9068 51.0559 55.6447C50.8768 55.5179 50.783 55.3826 50.7404 55.315C50.4249 54.833 50.4078 54.2242 50.3907 53.6916L50.4249 51.8314C50.4419 51.7215 50.4504 51.6116 50.459 51.5017C50.4845 51.3579 50.5613 50.7661 50.9621 50.394C51.3458 50.0305 51.8234 49.9713 52.318 49.929C52.8978 49.9121 53.4692 49.8867 54.0491 49.8867C54.6886 49.8867 55.3282 49.9205 55.9678 49.9628C56.0701 49.9713 56.1724 49.9797 56.2747 49.9966C56.3941 50.0135 56.7693 50.0727 57.0678 50.3264C57.5368 50.7153 57.5454 51.341 57.5368 51.8821Z" fill="#CC9B12"/>
<path d="M45.074 49.9622H46.0802L49.6191 55.9315H48.7664L47.9563 54.5702H43.1126L42.3452 55.9315H41.4753L45.074 49.9622ZM45.5771 50.4356L43.4452 54.0037H47.6237L45.5771 50.4356Z" fill="#CC9B12"/>
<path d="M40.6569 51.7301H39.8979C39.9064 51.4342 39.9064 51.0537 39.6677 50.8339C39.4204 50.6056 38.9428 50.5802 38.6444 50.5633C38.1071 50.5379 37.5699 50.521 37.0327 50.521C36.4613 50.521 35.8985 50.5379 35.3272 50.5464C34.9946 50.5717 34.4915 50.614 34.2442 50.8846C34.0139 51.1382 33.9883 51.5948 33.9798 51.8992V53.9623C33.9883 54.3005 34.0139 54.7571 34.2868 55.0192C34.5511 55.2728 35.0202 55.2898 35.3527 55.3067H38.5079C38.5761 55.2982 38.6444 55.2982 38.7041 55.2982C39.3266 55.2644 39.6165 55.0699 39.7615 54.8078C39.8894 54.5542 39.932 54.1737 39.9491 53.5818H36.8109V52.9899H40.6824C40.691 53.9623 40.6739 54.5542 40.5119 54.9854C40.4437 55.1629 40.3072 55.4758 39.8809 55.721C39.5483 55.907 39.2413 55.9239 38.8746 55.9493C38.3033 55.9746 37.7319 56 37.1606 56C36.4869 56 35.8218 55.9746 35.1395 55.9493C35.0031 55.9408 34.8667 55.9324 34.7217 55.9154C33.9627 55.8224 33.6387 55.5096 33.4682 55.2137C33.2379 54.8078 33.2038 54.3512 33.1697 53.9116C33.1612 53.5987 33.1441 53.2859 33.1441 52.9646C33.1441 52.5756 33.1697 52.1951 33.1953 51.8062C33.2038 51.6963 33.2209 51.5864 33.2294 51.468C33.3061 50.9438 33.4937 50.4956 33.9627 50.2082C34.338 49.9883 34.6876 49.963 35.114 49.9291C35.6427 49.9038 36.1799 49.8784 36.7086 49.8784C37.3993 49.8784 38.0901 49.9038 38.7808 49.9291C39.4118 49.9883 40.0855 50.0813 40.4352 50.707C40.6142 51.0368 40.6398 51.375 40.6569 51.7301Z" fill="#CC9B12"/>
<path d="M25.9133 49.9622H31.9764V50.554H26.6467V52.5325H31.7973V53.1329H26.6382V55.3143H32.002V55.9315H25.9133V49.9622Z" fill="#CC9B12"/>
<path d="M19.4915 49.9622H20.2334V55.2805H24.9832V55.9315H19.4915V49.9622Z" fill="#CC9B12"/>
<path fill-rule="evenodd" clip-rule="evenodd" d="M35.9375 4.2276C35.9375 2.55986 37.301 1.20789 38.983 1.20789H45.6832C47.3653 1.20789 48.7288 2.55986 48.7288 4.2276V27.1775H49.947V4.2276C49.947 1.89276 48.0381 0 45.6832 0H38.983C36.6282 0 34.7193 1.89276 34.7193 4.2276V27.1775H35.9375V4.2276ZM21.928 12.0789C20.2459 12.0789 18.8824 13.4308 18.8824 15.0986V27.1775H17.6642V15.0986C17.6642 12.7637 19.5731 10.871 21.928 10.871H28.6282C30.983 10.871 32.8919 12.7637 32.8919 15.0986V27.1775H31.6737V15.0986C31.6737 13.4308 30.3102 12.0789 28.6282 12.0789H21.928ZM4.26377 20.5341C2.58176 20.5341 1.21822 21.8861 1.21822 23.5538V27.1775H0V23.5538C0 21.219 1.90895 19.3262 4.26377 19.3262H10.964C13.3188 19.3262 15.2277 21.219 15.2277 23.5538V27.1775H14.0095V23.5538C14.0095 21.8861 12.646 20.5341 10.964 20.5341H4.26377ZM56.6472 16.9104C54.9652 16.9104 53.6017 18.2624 53.6017 19.9301V27.1775H52.3835V19.9301C52.3835 17.5953 54.2924 15.7025 56.6472 15.7025H63.3474C65.7022 15.7025 67.6112 17.5953 67.6112 19.9301V27.1775H66.393V19.9301C66.393 18.2624 65.0294 16.9104 63.3474 16.9104H56.6472ZM70.6532 23.5538C70.6532 21.8861 72.0168 20.5341 73.6988 20.5341H80.399C82.081 20.5341 83.4445 21.8861 83.4445 23.5538V27.1775H84.6627V23.5538C84.6627 21.219 82.7538 19.3262 80.399 19.3262H73.6988C71.3439 19.3262 69.435 21.219 69.435 23.5538V27.1775H70.6532V23.5538Z" fill="url(#paint0_linear_13058_8123)"/>
<defs>
<linearGradient id="paint0_linear_13058_8123" x1="42.3314" y1="0" x2="42.3314" y2="27.1775" gradientUnits="userSpaceOnUse">
<stop stop-color="#CC9B12"/>
<stop offset="0.380208" stop-color="#FFEEBE"/>
<stop offset="1" stop-color="#A27700"/>
</linearGradient>
</defs>
</svg>
